<svg width="87" height="29" viewBox="0 0 87 29" fill="none" xmlns="http://www.w3.org/2000/svg">
<path d="M6.64062 21.6094V15.0625C4.59896 14.4792 3.09896 13.599 2.14062 12.4219C1.19271 11.2344 0.71875 9.79688 0.71875 8.10938C0.71875 6.40104 1.25521 4.96875 2.32812 3.8125C3.41146 2.64583 4.84896 1.97396 6.64062 1.79688V0.25H8.90625V1.79688C10.5625 1.99479 11.8802 2.5625 12.8594 3.5C13.8385 4.42708 14.4635 5.67188 14.7344 7.23438L10.7812 7.75C10.5417 6.52083 9.91667 5.6875 8.90625 5.25V11.3594C11.4062 12.0365 13.1094 12.9167 14.0156 14C14.9219 15.0729 15.375 16.4531 15.375 18.1406C15.375 20.026 14.8021 21.6146 13.6562 22.9062C12.5208 24.1979 10.9375 24.9896 8.90625 25.2812V28.2031H6.64062V25.3594C4.83854 25.1406 3.375 24.4688 2.25 23.3438C1.125 22.2188 0.40625 20.6302 0.09375 18.5781L4.17188 18.1406C4.33854 18.974 4.65104 19.6927 5.10938 20.2969C5.56771 20.901 6.07812 21.3385 6.64062 21.6094ZM6.64062 5.20312C6.02604 5.41146 5.53646 5.76562 5.17188 6.26562C4.80729 6.76562 4.625 7.31771 4.625 7.92188C4.625 8.47396 4.79167 8.98958 5.125 9.46875C5.45833 9.9375 5.96354 10.3177 6.64062 10.6094V5.20312ZM8.90625 21.8281C9.6875 21.6823 10.3229 21.3229 10.8125 20.75C11.3021 20.1667 11.5469 19.4844 11.5469 18.7031C11.5469 18.0052 11.3385 17.4062 10.9219 16.9062C10.5156 16.3958 9.84375 16.0052 8.90625 15.7344V21.8281ZM29.4062 25H25.0156V8.45312C23.4115 9.95312 21.5208 11.0625 19.3438 11.7812V7.79688C20.4896 7.42188 21.7344 6.71354 23.0781 5.67188C24.4219 4.61979 25.3438 3.39583 25.8438 2H29.4062V25ZM43.4062 2C45.625 2 47.3594 2.79167 48.6094 4.375C50.099 6.25 50.8438 9.35938 50.8438 13.7031C50.8438 18.0365 50.0938 21.151 48.5938 23.0469C47.3542 24.6094 45.625 25.3906 43.4062 25.3906C41.1771 25.3906 39.3802 24.5365 38.0156 22.8281C36.651 21.1094 35.9688 18.0521 35.9688 13.6562C35.9688 9.34375 36.7188 6.23958 38.2188 4.34375C39.4583 2.78125 41.1875 2 43.4062 2ZM43.4062 5.64062C42.875 5.64062 42.401 5.8125 41.9844 6.15625C41.5677 6.48958 41.2448 7.09375 41.0156 7.96875C40.7135 9.10417 40.5625 11.0156 40.5625 13.7031C40.5625 16.3906 40.6979 18.2396 40.9688 19.25C41.2396 20.25 41.5781 20.9167 41.9844 21.25C42.401 21.5833 42.875 21.75 43.4062 21.75C43.9375 21.75 44.4115 21.5833 44.8281 21.25C45.2448 20.9062 45.5677 20.2969 45.7969 19.4219C46.099 18.2969 46.25 16.3906 46.25 13.7031C46.25 11.0156 46.1146 9.17188 45.8438 8.17188C45.5729 7.16146 45.2292 6.48958 44.8125 6.15625C44.4062 5.8125 43.9375 5.64062 43.4062 5.64062ZM61.2188 2C63.4375 2 65.1719 2.79167 66.4219 4.375C67.9115 6.25 68.6562 9.35938 68.6562 13.7031C68.6562 18.0365 67.9062 21.151 66.4062 23.0469C65.1667 24.6094 63.4375 25.3906 61.2188 25.3906C58.9896 25.3906 57.1927 24.5365 55.8281 22.8281C54.4635 21.1094 53.7812 18.0521 53.7812 13.6562C53.7812 9.34375 54.5312 6.23958 56.0312 4.34375C57.2708 2.78125 59 2 61.2188 2ZM61.2188 5.64062C60.6875 5.64062 60.2135 5.8125 59.7969 6.15625C59.3802 6.48958 59.0573 7.09375 58.8281 7.96875C58.526 9.10417 58.375 11.0156 58.375 13.7031C58.375 16.3906 58.5104 18.2396 58.7812 19.25C59.0521 20.25 59.3906 20.9167 59.7969 21.25C60.2135 21.5833 60.6875 21.75 61.2188 21.75C61.75 21.75 62.224 21.5833 62.6406 21.25C63.0573 20.9062 63.3802 20.2969 63.6094 19.4219C63.9115 18.2969 64.0625 16.3906 64.0625 13.7031C64.0625 11.0156 63.9271 9.17188 63.6562 8.17188C63.3854 7.16146 63.0417 6.48958 62.625 6.15625C62.2188 5.8125 61.75 5.64062 61.2188 5.64062ZM79.0312 2C81.25 2 82.9844 2.79167 84.2344 4.375C85.724 6.25 86.4688 9.35938 86.4688 13.7031C86.4688 18.0365 85.7188 21.151 84.2188 23.0469C82.9792 24.6094 81.25 25.3906 79.0312 25.3906C76.8021 25.3906 75.0052 24.5365 73.6406 22.8281C72.276 21.1094 71.5938 18.0521 71.5938 13.6562C71.5938 9.34375 72.3438 6.23958 73.8438 4.34375C75.0833 2.78125 76.8125 2 79.0312 2ZM79.0312 5.64062C78.5 5.64062 78.026 5.8125 77.6094 6.15625C77.1927 6.48958 76.8698 7.09375 76.6406 7.96875C76.3385 9.10417 76.1875 11.0156 76.1875 13.7031C76.1875 16.3906 76.3229 18.2396 76.5938 19.25C76.8646 20.25 77.2031 20.9167 77.6094 21.25C78.026 21.5833 78.5 21.75 79.0312 21.75C79.5625 21.75 80.0365 21.5833 80.4531 21.25C80.8698 20.9062 81.1927 20.2969 81.4219 19.4219C81.724 18.2969 81.875 16.3906 81.875 13.7031C81.875 11.0156 81.7396 9.17188 81.4688 8.17188C81.1979 7.16146 80.8542 6.48958 80.4375 6.15625C80.0312 5.8125 79.5625 5.64062 79.0312 5.64062Z" fill="black"/>
</svg>
